<svg width="56" height="64" viewBox="0 0 56 64" fill="none" xmlns="http://www.w3.org/2000/svg">
<path d="M21.5635 0.309082H38.4278C48.7658 0.309082 55.292 5.16045 55.292 12.8418C55.292 18.9637 48.9968 24.1039 41.4887 24.1039H33.6341V62.9129L26.9924 63.0649V1.23315H21.5635V0.309082ZM33.6341 1.23315V23.0066H40.0449C45.8781 23.0066 48.708 19.599 48.708 12.6108C48.708 5.91126 45.185 1.23315 40.0449 1.23315H33.6341Z" fill="#FFFDFB"/>
<path d="M4.2246 46.9555V23.8154H1.22432V23.2637H11.1908C19.7778 23.2637 25.6749 28.2986 25.6749 35.6441C25.6749 44.1622 18.2604 47.5073 11.2253 47.5073H0.707031V46.9555H4.2246ZM8.19049 46.9555H10.4666C18.9846 46.9555 21.4676 43.2311 21.4676 36.1959C21.4676 27.8158 18.019 23.8154 10.4666 23.8154H8.19049V46.9555Z" fill="#FFFDFB"/>
<path d="M29.925 62.977C33.6852 62.977 37.8738 60.7875 37.8738 56.5514C37.8738 50.5541 32.0193 49.4117 26.6408 47.5554C22.119 45.9847 17.9304 43.8904 17.9304 38.0359C17.9304 33.0382 21.1194 28.7544 26.3552 28.7544C28.5447 28.7544 31.0197 29.4208 32.4953 30.4679C33.4472 31.0867 33.6852 31.2295 34.1136 31.2295C35.1131 31.2295 35.7795 30.5155 35.9223 29.278H36.6838L37.017 39.2735H36.2079C35.3987 35.9416 34.8275 34.5137 33.7804 33.1334C32.1145 30.8963 29.449 29.5636 26.5456 29.5636C23.4041 29.5636 19.8819 31.4199 19.8819 34.9421C19.8819 40.1302 25.2604 41.1298 30.4962 42.7957C35.3987 44.3188 40.1585 46.4607 40.1585 53.0291C40.1585 59.2168 36.2079 63.691 29.8774 63.691C27.7831 63.691 25.8316 63.215 24.1657 62.2631L21.8334 60.9779C21.3574 60.6923 20.8339 60.5496 20.4055 60.5496C19.4535 60.5496 18.9776 61.1683 18.5968 62.8818H17.9304L17.8828 51.1252H18.5492C19.3583 55.2662 19.7867 56.5514 21.0718 58.5029C22.833 61.1207 26.5456 62.977 29.925 62.977Z" fill="#FFFDFB"/>
</svg>
