<svg width="56" height="64" viewBox="0 0 56 64" fill="none" xmlns="http://www.w3.org/2000/svg">
<path d="M21.5642 0.309082H38.4285C48.7665 0.309082 55.2928 5.16045 55.2928 12.8418C55.2928 18.9637 48.9975 24.1039 41.4895 24.1039H33.6349V62.9129L26.9931 63.0649V1.23315H21.5642V0.309082ZM33.6349 1.23315V23.0066H40.0456C45.8788 23.0066 48.7088 19.599 48.7088 12.6108C48.7088 5.91126 45.1858 1.23315 40.0456 1.23315H33.6349Z" fill="#292320"/>
<path d="M4.22485 46.9555V23.8154H1.22457V23.2637H11.191C19.778 23.2637 25.6751 28.2986 25.6751 35.6441C25.6751 44.1622 18.2606 47.5073 11.2255 47.5073H0.707275V46.9555H4.22485ZM8.19073 46.9555H10.4668C18.9848 46.9555 21.4678 43.2311 21.4678 36.1959C21.4678 27.8158 18.0192 23.8154 10.4668 23.8154H8.19073V46.9555Z" fill="#292320"/>
<path d="M29.9252 62.977C33.6854 62.977 37.874 60.7875 37.874 56.5514C37.874 50.5541 32.0195 49.4117 26.641 47.5554C22.1192 45.9847 17.9307 43.8904 17.9307 38.0359C17.9307 33.0382 21.1197 28.7544 26.3554 28.7544C28.5449 28.7544 31.02 29.4208 32.4955 30.4679C33.4474 31.0867 33.6854 31.2295 34.1138 31.2295C35.1134 31.2295 35.7797 30.5155 35.9225 29.278H36.6841L37.0173 39.2735H36.2081C35.3989 35.9416 34.8278 34.5137 33.7806 33.1334C32.1147 30.8963 29.4493 29.5636 26.5458 29.5636C23.4044 29.5636 19.8822 31.4199 19.8822 34.9421C19.8822 40.1302 25.2607 41.1298 30.4964 42.7957C35.3989 44.3188 40.1587 46.4607 40.1587 53.0291C40.1587 59.2168 36.2081 63.691 29.8776 63.691C27.7833 63.691 25.8318 63.215 24.1659 62.2631L21.8337 60.9779C21.3577 60.6923 20.8341 60.5496 20.4057 60.5496C19.4538 60.5496 18.9778 61.1683 18.597 62.8818H17.9307L17.8831 51.1252H18.5494C19.3586 55.2662 19.787 56.5514 21.0721 58.5029C22.8332 61.1207 26.5458 62.977 29.9252 62.977Z" fill="#292320"/>
</svg>
